<svg xmlns="http://www.w3.org/2000/svg" width="36.112" height="30.275" viewBox="0 0 36.112 30.275">
  <g id="Layer_2" transform="translate(-6.37 -15.546)">
    <g id="Group_131" data-name="Group 131" transform="translate(6.37 15.546)">
      <path id="Path_41" data-name="Path 41" d="M20.267,20.3a30.209,30.209,0,0,0-3.931.421c-1.46.343-3.167,1.025-3.931,2.464-.94,1.768-.312,4.09-.312,5.988h7.675a3.3,3.3,0,0,1,3.089,3.381c.2,3.3,0,10.275,0,10.275s.3,3.089-7.875,2.99-8.571-2.99-8.571-2.99V35.065c0-5.326-.7-13.673,3.741-17.675,2.644-2.383,7.033-1.775,10.316-1.775C20.467,15.615,20.267,20.3,20.267,20.3Z" transform="translate(-6.37 -15.546)" fill="#4c721f"/>
      <path id="Path_42" data-name="Path 42" d="M77.821,20.3a30.209,30.209,0,0,0-3.931.421c-1.46.343-3.167,1.025-3.931,2.464-.94,1.768-.312,4.09-.312,5.988h7.675a3.3,3.3,0,0,1,3.089,3.381c.2,3.3,0,10.275,0,10.275s.3,3.089-7.875,2.99-8.574-2.99-8.574-2.99V35.065c0-5.326-.7-13.673,3.741-17.675,2.644-2.383,7.033-1.775,10.316-1.775C78.021,15.615,77.821,20.3,77.821,20.3Z" transform="translate(-44.386 -15.546)" fill="#4c721f"/>
    </g>
  </g>
</svg>
